<?xml version="1.0" encoding="UTF-8"?>
<!DOCTYPE svg PUBLIC "-//W3C//DTD SVG 1.1//EN" "http://www.w3.org/Graphics/SVG/1.1/DTD/svg11.dtd">
<svg xmlns="http://www.w3.org/2000/svg" version="1.1" width="459px" height="495px" style="shape-rendering:geometricPrecision; text-rendering:geometricPrecision; image-rendering:optimizeQuality; fill-rule:evenodd; clip-rule:evenodd" xmlns:xlink="http://www.w3.org/1999/xlink">
<g><path style="opacity:1" fill="#fdfdfd" d="M -0.5,-0.5 C 152.5,-0.5 305.5,-0.5 458.5,-0.5C 458.5,164.5 458.5,329.5 458.5,494.5C 305.5,494.5 152.5,494.5 -0.5,494.5C -0.5,329.5 -0.5,164.5 -0.5,-0.5 Z"/></g>
<g><path style="opacity:1" fill="#21211f" d="M 224.5,52.5 C 222.167,52.5 219.833,52.5 217.5,52.5C 217.824,45.6457 217.491,38.979 216.5,32.5C 216.5,27.8333 216.5,23.1667 216.5,18.5C 218.833,18.5 221.167,18.5 223.5,18.5C 224.136,29.8223 224.469,41.1556 224.5,52.5 Z"/></g>
<g><path style="opacity:1" fill="#21211f" d="M 243.5,19.5 C 245.792,19.2436 247.959,19.5769 250,20.5C 249.333,25.1667 248.667,29.8333 248,34.5C 252,30.5 256,26.5 260,22.5C 262.175,23.2546 264.341,24.088 266.5,25C 262.167,29.3333 257.833,33.6667 253.5,38C 255.036,44.8107 257.036,51.4773 259.5,58C 256.498,57.8416 253.498,57.3416 250.5,56.5C 249.657,50.4526 248.491,44.4526 247,38.5C 245.191,43.3546 243.691,48.3546 242.5,53.5C 240.282,54.0574 237.949,54.0574 235.5,53.5C 238.167,42.1667 240.833,30.8333 243.5,19.5 Z"/></g>
<g><path style="opacity:1" fill="#20201e" d="M 191.5,21.5 C 193.766,21.1412 195.599,21.8078 197,23.5C 200.037,32.9427 202.87,42.4427 205.5,52C 205.245,53.3261 204.578,54.3261 203.5,55C 201.179,55.8365 198.845,56.1699 196.5,56C 190.301,48.4344 184.468,40.6011 179,32.5C 181.897,41.7014 184.731,51.0347 187.5,60.5C 185.738,60.3573 184.071,60.6906 182.5,61.5C 177.913,50.4954 174.247,39.1621 171.5,27.5C 174.596,27.0653 177.596,26.5653 180.5,26C 186.699,33.5656 192.532,41.3989 198,49.5C 195.797,40.5534 192.963,31.72 189.5,23C 190.416,22.7216 191.082,22.2216 191.5,21.5 Z"/></g>
<g><path style="opacity:1" fill="#21211f" d="M 288.5,34.5 C 291.879,35.7121 294.879,37.5454 297.5,40C 294.106,50.7378 290.939,61.5711 288,72.5C 281.295,72.3674 279.795,69.2008 283.5,63C 280.922,60.793 278.089,58.9596 275,57.5C 271.726,63.3839 267.893,63.8839 263.5,59C 272.294,51.2761 280.628,43.1095 288.5,34.5 Z"/></g>
<g><path style="opacity:1" fill="#20201e" d="M 148.5,40.5 C 151.044,41.4679 153.211,43.1345 155,45.5C 160.308,52.9748 165.808,60.3081 171.5,67.5C 169.833,68.8333 168.167,70.1667 166.5,71.5C 163.342,68.1724 160.342,64.6724 157.5,61C 154.692,60.9214 152.359,62.0881 150.5,64.5C 153.132,68.9315 156.132,73.0982 159.5,77C 157.391,78.1411 155.558,79.6411 154,81.5C 146.833,72.3333 139.667,63.1667 132.5,54C 134.043,52.1217 135.876,50.6217 138,49.5C 140.62,52.5758 143.12,55.7424 145.5,59C 148.671,59.0269 151.004,57.5269 152.5,54.5C 149.833,51.1667 147.167,47.8333 144.5,44.5C 146.188,43.4787 147.521,42.1454 148.5,40.5 Z"/></g>
<g><path style="opacity:1" fill="#f3f3f3" d="M 288.5,43.5 C 289.043,43.56 289.376,43.8933 289.5,44.5C 287.901,48.7959 286.401,53.1292 285,57.5C 283.255,56.0443 281.422,54.711 279.5,53.5C 282.522,50.1467 285.522,46.8134 288.5,43.5 Z"/></g>
<g><path style="opacity:1" fill="#868685" d="M 216.5,32.5 C 217.491,38.979 217.824,45.6457 217.5,52.5C 219.833,52.5 222.167,52.5 224.5,52.5C 222.052,53.4731 219.385,53.8064 216.5,53.5C 216.5,46.5 216.5,39.5 216.5,32.5 Z"/></g>
<g><path style="opacity:1" fill="#21211f" d="M 328.5,66.5 C 329.552,66.3505 330.552,66.5172 331.5,67C 333.62,69.4087 335.62,71.9087 337.5,74.5C 331.978,80.8546 326.644,87.3546 321.5,94C 329.292,91.1093 336.959,87.6093 344.5,83.5C 347.075,86.319 349.408,89.319 351.5,92.5C 342.81,99.8513 333.81,106.851 324.5,113.5C 322.216,112.418 321.05,110.752 321,108.5C 327.896,102.637 335.063,97.1366 342.5,92C 333.593,94.9463 324.926,98.7797 316.5,103.5C 314.493,101.992 312.826,100.158 311.5,98C 318.167,90 324.833,82 331.5,74C 330.833,73.3333 330.167,73.3333 329.5,74C 322.606,80.7306 315.273,86.8973 307.5,92.5C 306.167,90.8333 304.833,89.1667 303.5,87.5C 311.679,80.2542 320.013,73.2542 328.5,66.5 Z"/></g>
<g><path style="opacity:1" fill="#20201e" d="M 116.5,69.5 C 121.14,68.736 125.14,69.9026 128.5,73C 127.167,74.3333 125.833,75.6667 124.5,77C 122.415,77.5288 120.582,77.0288 119,75.5C 115.303,76.9265 114.637,79.2598 117,82.5C 120.912,87.0833 125.412,90.9166 130.5,94C 135.1,95.5833 136.934,94.0833 136,89.5C 134.764,88.6008 133.93,87.4341 133.5,86C 134.608,83.8876 136.108,82.0542 138,80.5C 145.439,87.3857 144.939,93.8857 136.5,100C 133.167,102 129.833,102 126.5,100C 120.742,96.2462 115.575,91.7462 111,86.5C 109.682,83.594 109.348,80.594 110,77.5C 112.001,74.6693 114.167,72.0026 116.5,69.5 Z"/></g>
<g><path style="opacity:1" fill="#1e1e1c" d="M 231.5,100.5 C 230.957,100.56 230.624,100.893 230.5,101.5C 240.812,102.499 251.145,102.832 261.5,102.5C 261.5,105.167 261.5,107.833 261.5,110.5C 234.5,110.5 207.5,110.5 180.5,110.5C 180.5,107.833 180.5,105.167 180.5,102.5C 190.855,102.832 201.188,102.499 211.5,101.5C 211.376,100.893 211.043,100.56 210.5,100.5C 207.81,86.3563 213.477,80.8563 227.5,84C 233.67,88.3884 235.004,93.8884 231.5,100.5 Z"/></g>
<g><path style="opacity:1" fill="#f5f5f5" d="M 218.5,86.5 C 228.896,87.411 231.229,92.2444 225.5,101C 216.753,103.579 212.92,100.413 214,91.5C 215.025,89.313 216.525,87.6464 218.5,86.5 Z"/></g>
<g><path style="opacity:1" fill="#21211f" d="M 95.5,97.5 C 97.4233,97.795 99.0899,98.6283 100.5,100C 98.319,102.694 96.6524,105.694 95.5,109C 97.1781,111.668 99.5114,113.001 102.5,113C 104.041,110.084 105.707,107.251 107.5,104.5C 109.23,105.026 110.564,106.026 111.5,107.5C 110.167,110.167 108.833,112.833 107.5,115.5C 109.794,117.653 112.46,119.32 115.5,120.5C 117.902,117.374 120.069,114.04 122,110.5C 123.586,111.376 125.086,112.376 126.5,113.5C 124.088,118.659 121.421,123.659 118.5,128.5C 117.635,129.583 116.635,129.749 115.5,129C 106.412,124.039 97.2457,119.206 88,114.5C 89.3694,108.419 91.8694,102.753 95.5,97.5 Z"/></g>
<g><path style="opacity:1" fill="#a1a1a1" d="M 210.5,100.5 C 211.043,100.56 211.376,100.893 211.5,101.5C 201.188,102.499 190.855,102.832 180.5,102.5C 190.5,101.833 200.5,101.167 210.5,100.5 Z"/></g>
<g><path style="opacity:1" fill="#a0a0a0" d="M 231.5,100.5 C 241.5,101.167 251.5,101.833 261.5,102.5C 251.145,102.832 240.812,102.499 230.5,101.5C 230.624,100.893 230.957,100.56 231.5,100.5 Z"/></g>
<g><path style="opacity:1" fill="#20201f" d="M 351.5,112.5 C 362.774,111.275 367.941,116.275 367,127.5C 366.293,129.081 365.46,130.581 364.5,132C 356.997,137.597 348.663,140.597 339.5,141C 333.333,137.155 331.166,131.655 333,124.5C 338.555,119.425 344.721,115.425 351.5,112.5 Z"/></g>
<g><path style="opacity:1" fill="#8d8d8c" d="M 203.5,118.5 C 199.298,118.183 195.298,118.517 191.5,119.5C 190.325,119.719 189.325,119.386 188.5,118.5C 193.652,117.186 198.652,117.186 203.5,118.5 Z"/></g>
<g><path style="opacity:1" fill="#848483" d="M 228.5,118.5 C 225.615,118.194 222.948,118.527 220.5,119.5C 219.527,119.013 218.527,118.513 217.5,118C 221.358,117.19 225.024,117.357 228.5,118.5 Z"/></g>
<g><path style="opacity:1" fill="#262624" d="M 203.5,118.5 C 208.999,119.158 211.165,122.158 210,127.5C 207.468,131.907 203.635,133.574 198.5,132.5C 198.185,136.371 198.518,140.038 199.5,143.5C 196.5,144.833 193.5,144.833 190.5,143.5C 191.492,135.684 191.826,127.684 191.5,119.5C 195.298,118.517 199.298,118.183 203.5,118.5 Z"/></g>
<g><path style="opacity:1" fill="#1f1f1d" d="M 220.5,119.5 C 222.948,118.527 225.615,118.194 228.5,118.5C 230.774,123.383 232.774,128.383 234.5,133.5C 234.782,134.778 235.449,135.778 236.5,136.5C 235.623,139.301 234.456,141.968 233,144.5C 229.861,136.751 226.528,129.084 223,121.5C 222.333,128.5 222.333,135.5 223,142.5C 223.5,143 224,143.5 224.5,144C 222.833,144.667 221.167,144.667 219.5,144C 220,143.5 220.5,143 221,142.5C 221.822,134.655 221.656,126.989 220.5,119.5 Z"/></g>
<g><path style="opacity:1" fill="#21211f" d="M 251.5,143.5 C 248.5,144.833 245.5,144.833 242.5,143.5C 243.167,143.5 243.5,143.167 243.5,142.5C 244.655,135.345 244.822,128.012 244,120.5C 243.31,121.738 242.81,121.738 242.5,120.5C 243.514,119.235 245.014,118.569 247,118.5C 248.5,118.667 250,118.833 251.5,119C 250.172,127.265 250.172,135.432 251.5,143.5 Z"/></g>
<g><path style="opacity:1" fill="#777776" d="M 198.5,119.5 C 198.5,123.167 198.5,126.833 198.5,130.5C 199.5,130.5 200.5,130.5 201.5,130.5C 200.432,131.434 199.099,131.768 197.5,131.5C 197.183,127.298 197.517,123.298 198.5,119.5 Z"/></g>
<g><path style="opacity:1" fill="#f7f7f7" d="M 353.5,119.5 C 355.924,119.192 358.257,119.526 360.5,120.5C 361.833,122.167 361.833,123.833 360.5,125.5C 354.344,130.583 347.344,133.416 339.5,134C 338.424,132.274 338.257,130.441 339,128.5C 343.646,125.099 348.479,122.099 353.5,119.5 Z"/></g>
<g><path style="opacity:1" fill="#f1f1f1" d="M 198.5,119.5 C 203.288,120.123 205.121,122.79 204,127.5C 203.623,128.942 202.79,129.942 201.5,130.5C 200.5,130.5 199.5,130.5 198.5,130.5C 198.5,126.833 198.5,123.167 198.5,119.5 Z"/></g>
<g><path style="opacity:1" fill="#20201e" d="M 81.5,125.5 C 83.1172,126.038 84.7839,126.371 86.5,126.5C 86.1336,128.905 85.4669,131.238 84.5,133.5C 84.8333,134.167 85.1667,134.833 85.5,135.5C 93.7924,138.708 102.126,141.708 110.5,144.5C 110.894,147.712 109.728,150.046 107,151.5C 98.7894,148.597 90.6227,145.597 82.5,142.5C 80.4448,144.261 78.6115,146.261 77,148.5C 75.3791,148.275 74.2125,147.442 73.5,146C 75.8806,139.02 78.5473,132.186 81.5,125.5 Z"/></g>
<g><path style="opacity:1" fill="#484847" d="M 242.5,120.5 C 242.81,121.738 243.31,121.738 244,120.5C 244.822,128.012 244.655,135.345 243.5,142.5C 243.666,135.825 243.5,129.158 243,122.5C 241.058,127.377 238.892,132.044 236.5,136.5C 235.449,135.778 234.782,134.778 234.5,133.5C 235.117,133.611 235.617,133.944 236,134.5C 237.942,129.623 240.108,124.956 242.5,120.5 Z"/></g>
<g><path style="opacity:1" fill="#b3b3b2" d="M 190.5,143.5 C 193.5,144.833 196.5,144.833 199.5,143.5C 200.376,143.369 201.043,143.702 201.5,144.5C 197.167,145.833 192.833,145.833 188.5,144.5C 188.957,143.702 189.624,143.369 190.5,143.5 Z"/></g>
<g><path style="opacity:1" fill="#b4b4b3" d="M 242.5,143.5 C 245.5,144.833 248.5,144.833 251.5,143.5C 252.376,143.369 253.043,143.702 253.5,144.5C 249.167,145.833 244.833,145.833 240.5,144.5C 240.957,143.702 241.624,143.369 242.5,143.5 Z"/></g>
<g><path style="opacity:1" fill="#20201e" d="M 372.5,145.5 C 373.833,145.5 375.167,145.5 376.5,145.5C 378.57,151.68 379.403,158.013 379,164.5C 374.414,168.781 369.414,169.448 364,166.5C 363.64,168.421 362.806,170.088 361.5,171.5C 357.197,172.878 353.03,174.544 349,176.5C 348.358,174.238 347.525,172.071 346.5,170C 350.223,167.757 354.223,166.09 358.5,165C 359.576,163.274 359.743,161.441 359,159.5C 354.597,158.838 350.264,159.505 346,161.5C 343.619,159.906 342.453,157.573 342.5,154.5C 352.73,151.864 362.73,148.864 372.5,145.5 Z"/></g>
<g><path style="opacity:1" fill="#eeeeee" d="M 367.5,154.5 C 369.5,154.5 371.5,154.5 373.5,154.5C 374.657,159.083 372.99,161.75 368.5,162.5C 365.632,161.797 363.965,159.964 363.5,157C 364.858,156.066 366.192,155.232 367.5,154.5 Z"/></g>
<g><path style="opacity:1" fill="#292927" d="M 220.5,154.5 C 221.117,154.611 221.617,154.944 222,155.5C 222.829,160.533 222.662,165.533 221.5,170.5C 219.311,165.281 218.978,159.948 220.5,154.5 Z"/></g>
<g><path style="opacity:1" fill="#242422" d="M 69.5,159.5 C 80.8554,162.173 92.1888,164.839 103.5,167.5C 103.007,169.806 102.674,172.139 102.5,174.5C 91.4124,172.479 80.4124,169.979 69.5,167C 68.8641,164.606 68.8641,162.106 69.5,159.5 Z"/></g>
<g><path style="opacity:1" fill="#252523" d="M 211.5,160.5 C 213.604,160.201 215.604,160.534 217.5,161.5C 216.68,163.111 215.346,163.778 213.5,163.5C 214.344,167.494 214.844,171.494 215,175.5C 214.347,172.193 212.681,169.527 210,167.5C 209.167,164.829 209.667,162.496 211.5,160.5 Z"/></g>
<g><path style="opacity:1" fill="#2b2b29" d="M 225.5,160.5 C 229.367,159.775 232.034,161.108 233.5,164.5C 231.246,168.007 229.246,171.673 227.5,175.5C 226.369,173.926 226.202,172.259 227,170.5C 227.85,168.99 228.683,167.49 229.5,166C 228.968,163.98 227.635,163.147 225.5,163.5C 225.5,162.5 225.5,161.5 225.5,160.5 Z"/></g>
<g><path style="opacity:1" fill="#2a2a28" d="M 181.5,158.5 C 186.364,159.2 189.531,161.867 191,166.5C 194.864,161.7 198.864,161.366 203,165.5C 203.499,169.152 203.665,172.818 203.5,176.5C 202.5,176.5 201.5,176.5 200.5,176.5C 201.689,171.555 200.023,168.222 195.5,166.5C 194.558,166.608 193.725,166.941 193,167.5C 192.667,169.833 192.333,172.167 192,174.5C 191.586,174.957 191.086,175.291 190.5,175.5C 187.22,169.938 184.22,164.271 181.5,158.5 Z"/></g>
<g><path style="opacity:1" fill="#232321" d="M 251.5,175.5 C 250.909,174.849 250.243,174.182 249.5,173.5C 251.351,169.881 250.351,167.548 246.5,166.5C 244.971,166.529 243.804,167.196 243,168.5C 241.921,171.063 241.421,173.729 241.5,176.5C 240.209,176.737 239.209,176.404 238.5,175.5C 239.323,172.023 239.823,168.356 240,164.5C 245.516,161.092 249.516,162.425 252,168.5C 252.333,166.5 252.667,164.5 253,162.5C 255.333,161.167 257.667,159.833 260,158.5C 258.248,164.67 255.415,170.337 251.5,175.5 Z"/></g>
<g><path style="opacity:1" fill="#393937" d="M 215.5,165.5 C 218.128,166.625 218.961,168.625 218,171.5C 216.878,169.593 216.045,167.593 215.5,165.5 Z"/></g>
<g><path style="opacity:1" fill="#2a2a28" d="M 194.5,168.5 C 197.776,169.122 199.109,171.122 198.5,174.5C 195.221,173.969 193.887,171.969 194.5,168.5 Z"/></g>
<g><path style="opacity:1" fill="#525251" d="M 224.5,165.5 C 226.81,167.278 226.644,169.278 224,171.5C 223.82,169.512 223.986,167.512 224.5,165.5 Z"/></g>
<g><path style="opacity:1" fill="#e2e2e2" d="M 251.5,175.5 C 250.508,175.328 249.842,175.662 249.5,176.5C 247.712,176.215 246.045,176.548 244.5,177.5C 245.722,179.978 247.722,180.978 250.5,180.5C 249.5,181.167 248.5,181.833 247.5,182.5C 245.122,183.688 242.622,184.688 240,185.5C 237.096,185.479 235.262,184.145 234.5,181.5C 235.467,179.238 236.134,176.905 236.5,174.5C 237.167,174.833 237.833,175.167 238.5,175.5C 239.209,176.404 240.209,176.737 241.5,176.5C 241.421,173.729 241.921,171.063 243,168.5C 243.804,167.196 244.971,166.529 246.5,166.5C 250.351,167.548 251.351,169.881 249.5,173.5C 250.243,174.182 250.909,174.849 251.5,175.5 Z"/></g>
<g><path style="opacity:1" fill="#2e2e2c" d="M 245.5,168.5 C 246.5,168.5 247.5,168.5 248.5,168.5C 249.077,171.55 247.91,173.55 245,174.5C 244.322,172.402 244.489,170.402 245.5,168.5 Z"/></g>
<g><path style="opacity:1" fill="#232321" d="M 236.5,174.5 C 236.134,176.905 235.467,179.238 234.5,181.5C 235.262,184.145 237.096,185.479 240,185.5C 242.622,184.688 245.122,183.688 247.5,182.5C 247.938,182.435 248.272,182.601 248.5,183C 247.601,185.192 246.601,187.358 245.5,189.5C 229.167,190.833 212.833,190.833 196.5,189.5C 195.877,187.289 194.877,185.289 193.5,183.5C 195.919,182.105 197.919,182.605 199.5,185C 207.575,185.938 209.575,182.772 205.5,175.5C 206.415,173.02 207.915,172.353 210,173.5C 210.419,175.68 210.252,177.846 209.5,180C 210.528,184.206 213.195,185.539 217.5,184C 219.155,182.556 219.822,180.722 219.5,178.5C 220.5,178.5 221.5,178.5 222.5,178.5C 222.504,183.989 225.171,185.822 230.5,184C 232.223,183.225 233.223,181.892 233.5,180C 231.818,178.105 231.318,175.938 232,173.5C 233.915,172.084 235.415,172.418 236.5,174.5 Z"/></g>
<g><path style="opacity:1" fill="#2c2c2a" d="M 219.5,172.5 C 220.873,172.343 222.207,172.51 223.5,173C 224.451,173.718 224.617,174.551 224,175.5C 221.482,177.028 219.315,176.694 217.5,174.5C 218.243,173.818 218.909,173.151 219.5,172.5 Z"/></g>
<g><path style="opacity:1" fill="#222220" d="M 191.5,176.5 C 193.604,176.201 195.604,176.534 197.5,177.5C 195.929,180.093 193.596,181.093 190.5,180.5C 190.433,179.041 190.766,177.708 191.5,176.5 Z"/></g>
<g><path style="opacity:1" fill="#242422" d="M 249.5,176.5 C 251.519,177.538 251.853,178.872 250.5,180.5C 247.722,180.978 245.722,179.978 244.5,177.5C 246.045,176.548 247.712,176.215 249.5,176.5 Z"/></g>
<g><path style="opacity:1" fill="#272725" d="M 212.5,177.5 C 216.138,176.737 217.638,178.07 217,181.5C 212.415,183.413 210.915,182.079 212.5,177.5 Z"/></g>
<g><path style="opacity:1" fill="#2a2a28" d="M 225.5,177.5 C 229.5,176.833 231.167,178.5 230.5,182.5C 225.58,183.585 223.913,181.918 225.5,177.5 Z"/></g>
<g><path style="opacity:1" fill="#262624" d="M 200.5,178.5 C 204.138,177.737 205.638,179.07 205,182.5C 200.415,184.413 198.915,183.079 200.5,178.5 Z"/></g>
<g><path style="opacity:1" fill="#2e2e2c" d="M 238.5,178.5 C 241.757,178.174 243.257,179.507 243,182.5C 241.274,183.576 239.441,183.743 237.5,183C 236.257,181.184 236.59,179.684 238.5,178.5 Z"/></g>
<g><path style="opacity:1" fill="#20201e" d="M 373.5,182.5 C 384.887,182.555 389.054,188.222 386,199.5C 383.859,202.321 381.025,203.654 377.5,203.5C 377.192,201.076 377.526,198.743 378.5,196.5C 382.802,193.45 382.468,191.116 377.5,189.5C 376.558,189.608 375.725,189.941 375,190.5C 372.293,195.416 369.459,200.249 366.5,205C 357.952,208.309 352.785,205.476 351,196.5C 349.347,187.987 352.847,183.987 361.5,184.5C 361.5,186.833 361.5,189.167 361.5,191.5C 358.41,190.83 356.743,191.997 356.5,195C 356.745,198.255 358.412,199.588 361.5,199C 364.629,195.248 367.129,191.081 369,186.5C 370.397,184.93 371.897,183.596 373.5,182.5 Z"/></g>
<g><path style="opacity:1" fill="#21211f" d="M 93.5,182.5 C 95.4352,183.15 97.4352,183.483 99.5,183.5C 99.1974,188.892 98.5307,194.225 97.5,199.5C 95.8333,199.833 94.1667,200.167 92.5,200.5C 82.815,199.232 73.1483,197.899 63.5,196.5C 63.5,194.167 63.5,191.833 63.5,189.5C 73.1095,190.919 82.7762,191.919 92.5,192.5C 93.2071,189.214 93.5405,185.881 93.5,182.5 Z"/></g>
<g><path style="opacity:1" fill="#252523" d="M 272.5,181.5 C 268.499,189.339 263.499,196.506 257.5,203C 249.329,203.578 243.329,207.411 239.5,214.5C 238.072,211.988 237.572,209.322 238,206.5C 244.429,202.033 251.262,198.2 258.5,195C 264.373,190.425 269.206,184.925 273,178.5C 273.47,179.577 273.303,180.577 272.5,181.5 Z"/></g>
<g><path style="opacity:1" fill="#272725" d="M 239.5,214.5 C 238.17,219.475 236.837,224.475 235.5,229.5C 231.5,226.159 229.667,221.825 230,216.5C 228.242,212.609 226.409,209.276 224.5,206.5C 222.232,207.544 219.899,207.711 217.5,207C 215.963,205.293 214.296,203.793 212.5,202.5C 211.433,200.121 212.433,199.121 215.5,199.5C 215.034,203.531 216.867,205.531 221,205.5C 223.328,205.183 225.161,204.016 226.5,202C 227.5,201.333 228.5,201.333 229.5,202C 227.063,203.279 226.563,204.779 228,206.5C 229.878,204.957 231.378,203.124 232.5,201C 234.256,200.798 235.922,200.298 237.5,199.5C 232.198,198.671 226.864,198.171 221.5,198C 223.804,197.105 226.138,196.271 228.5,195.5C 227.333,195.167 226.167,194.833 225,194.5C 213.807,198.109 202.307,199.276 190.5,198C 191.5,195.667 193.167,194 195.5,193C 211.5,192.333 227.5,192.333 243.5,193C 244.358,194.57 245.025,196.237 245.5,198C 242.353,200.475 239.186,202.975 236,205.5C 235.348,208.594 235.682,211.594 237,214.5C 237.77,215.598 238.603,215.598 239.5,214.5 Z"/></g>
<g><path style="opacity:1" fill="#262624" d="M 246.5,192.5 C 248.487,193.164 250.154,194.331 251.5,196C 247.997,198.033 246.331,196.866 246.5,192.5 Z"/></g>
<g><path style="opacity:1" fill="#30302f" d="M 217.5,199.5 C 219.854,199.838 222.187,200.338 224.5,201C 222.559,201.304 220.893,202.137 219.5,203.5C 217.889,202.68 217.222,201.346 217.5,199.5 Z"/></g>
<g><path style="opacity:1" fill="#20201e" d="M 181.5,200.5 C 188.2,200.17 194.866,200.503 201.5,201.5C 203.39,207.034 207.224,210.367 213,211.5C 214.118,221.064 218.785,228.398 227,233.5C 227.944,236.347 227.444,238.847 225.5,241C 221.304,242.77 216.971,243.937 212.5,244.5C 212.896,241.956 212.229,239.789 210.5,238C 204.66,236.105 198.66,235.105 192.5,235C 190.208,233.71 188.208,232.043 186.5,230C 197.357,232.254 208.357,234.087 219.5,235.5C 219.856,232.436 219.023,229.769 217,227.5C 212.466,223.301 208.299,218.801 204.5,214C 199.667,210.531 195,210.698 190.5,214.5C 184.81,211.43 178.81,209.93 172.5,210C 171.74,213.667 170.24,214.167 168,211.5C 167.676,207.454 169.509,204.621 173.5,203C 176.31,202.218 178.977,201.384 181.5,200.5 Z"/></g>
<g><path style="opacity:1" fill="#252523" d="M 204.5,200.5 C 205.833,200.5 207.167,200.5 208.5,200.5C 207.876,208.21 206.543,208.21 204.5,200.5 Z"/></g>
<g><path style="opacity:1" fill="#1f1f1d" d="M 68.5,211.5 C 75.175,211.334 81.8417,211.5 88.5,212C 97.5555,215.63 99.7222,221.796 95,230.5C 93.6811,232.487 91.8477,233.654 89.5,234C 82.5,234.667 75.5,234.667 68.5,234C 65.4173,233.214 63.2506,231.381 62,228.5C 61.3333,224.833 61.3333,221.167 62,217.5C 63.4936,214.686 65.6603,212.686 68.5,211.5 Z"/></g>
<g><path style="opacity:1" fill="#e1e1e0" d="M 272.5,181.5 C 273.167,181.833 273.833,182.167 274.5,182.5C 270.499,190.498 265.499,197.831 259.5,204.5C 252.329,204.645 246.829,207.645 243,213.5C 240.04,220.844 238.706,228.51 239,236.5C 235.386,239.098 232.219,242.098 229.5,245.5C 229.5,244.833 229.167,244.5 228.5,244.5C 230.412,241.081 232.912,238.081 236,235.5C 236.667,234.5 236.667,233.5 236,232.5C 234.045,231.547 232.378,230.213 231,228.5C 229.513,222.54 227.347,216.873 224.5,211.5C 223.409,210.112 222.076,209.612 220.5,210C 223.352,213.47 224.019,217.303 222.5,221.5C 221.036,214.57 217.536,208.903 212,204.5C 211.536,205.094 211.369,205.761 211.5,206.5C 210.903,206.265 210.57,205.765 210.5,205C 211.056,203.989 211.722,203.156 212.5,202.5C 214.296,203.793 215.963,205.293 217.5,207C 219.899,207.711 222.232,207.544 224.5,206.5C 226.409,209.276 228.242,212.609 230,216.5C 229.667,221.825 231.5,226.159 235.5,229.5C 236.837,224.475 238.17,219.475 239.5,214.5C 243.329,207.411 249.329,203.578 257.5,203C 263.499,196.506 268.499,189.339 272.5,181.5 Z"/></g>
<g><path style="opacity:1" fill="#2f2f2d" d="M 155.5,210.5 C 159.273,215.41 164.273,218.577 170.5,220C 184.272,219.288 197.606,221.288 210.5,226C 212.792,227.29 214.792,228.957 216.5,231C 212.654,229.718 208.654,228.385 204.5,227C 194.217,225.52 183.883,224.52 173.5,224C 167.594,222.963 162.427,220.463 158,216.5C 156.441,214.783 155.608,212.783 155.5,210.5 Z"/></g>
<g><path style="opacity:1" fill="#21211f" d="M 255.5,213.5 C 255.571,216.597 255.738,219.93 256,223.5C 259.628,226.806 263.794,227.473 268.5,225.5C 266.9,233.275 262.234,236.442 254.5,235C 253.667,230.665 252,226.665 249.5,223C 250.63,219.23 252.63,216.063 255.5,213.5 Z"/></g>
<g><path style="opacity:1" fill="#21211f" d="M 249.5,243.5 C 247.871,244.625 246.371,245.959 245,247.5C 238.58,263.086 228.08,275.086 213.5,283.5C 214.365,284.583 215.365,284.749 216.5,284C 225.301,278.529 232.801,271.696 239,263.5C 237.366,269.029 235.866,274.696 234.5,280.5C 231.601,289.237 225.601,294.07 216.5,295C 222.13,291.592 225.797,287.092 227.5,281.5C 217.457,287.368 206.791,291.201 195.5,293C 202.459,288.375 208.459,282.708 213.5,276C 227.576,270.257 237.243,260.257 242.5,246C 242.15,244.743 241.483,244.409 240.5,245C 236.52,257.452 228.854,265.952 217.5,270.5C 221.498,262.177 225.498,253.844 229.5,245.5C 232.219,242.098 235.386,239.098 239,236.5C 238.706,228.51 240.04,220.844 243,213.5C 246.829,207.645 252.329,204.645 259.5,204.5C 265.499,197.831 270.499,190.498 274.5,182.5C 275.32,180.188 276.153,177.854 277,175.5C 275.427,186.719 271.927,197.386 266.5,207.5C 257.6,208.114 251.267,212.448 247.5,220.5C 246.167,219.5 244.833,218.5 243.5,217.5C 243.167,217.833 242.833,218.167 242.5,218.5C 246.071,221.973 248.904,225.973 251,230.5C 251.731,234.984 251.231,239.318 249.5,243.5 Z"/></g>
<g><path style="opacity:1" fill="#20201e" d="M 354.5,240.5 C 353.527,238.052 353.194,235.385 353.5,232.5C 358.171,230.497 362.838,228.497 367.5,226.5C 368.289,226.217 368.956,225.717 369.5,225C 364.177,224.501 358.844,224.334 353.5,224.5C 353.5,222.167 353.5,219.833 353.5,217.5C 365.173,217.667 376.839,218 388.5,218.5C 388.5,220.833 388.5,223.167 388.5,225.5C 383.821,225.334 379.155,225.501 374.5,226C 378.916,228.958 383.416,231.792 388,234.5C 388.667,237.167 388.667,239.833 388,242.5C 382.841,238.586 377.507,234.92 372,231.5C 366.218,234.641 360.385,237.641 354.5,240.5 Z"/></g>
<g><path style="opacity:1" fill="#f5f5f5" d="M 69.5,218.5 C 75.1764,218.334 80.8431,218.501 86.5,219C 91.5852,220.211 92.5852,222.877 89.5,227C 82.8333,227.667 76.1667,227.667 69.5,227C 65.5139,223.985 65.5139,221.151 69.5,218.5 Z"/></g>
<g><path style="opacity:1" fill="#969695" d="M 353.5,224.5 C 358.844,224.334 364.177,224.501 369.5,225C 368.956,225.717 368.289,226.217 367.5,226.5C 362.833,225.833 358.167,225.167 353.5,224.5 Z"/></g>
<g><path style="opacity:1" fill="#767674" d="M 261.5,238.5 C 260.167,238.5 258.833,238.5 257.5,238.5C 257.5,239.5 257.5,240.5 257.5,241.5C 256.566,240.432 256.232,239.099 256.5,237.5C 258.415,237.216 260.081,237.549 261.5,238.5 Z"/></g>
<g><path style="opacity:1" fill="#232322" d="M 257.5,241.5 C 257.5,240.5 257.5,239.5 257.5,238.5C 258.833,238.5 260.167,238.5 261.5,238.5C 262.976,242.023 264.143,245.69 265,249.5C 266.171,250.893 267.671,251.727 269.5,252C 267.963,253.707 266.296,255.207 264.5,256.5C 262.345,256.628 260.345,256.128 258.5,255C 256.132,252.093 254.465,248.926 253.5,245.5C 253.336,242.813 253.503,240.146 254,237.5C 254.925,243.132 257.092,248.132 260.5,252.5C 260.833,252 261.167,251.5 261.5,251C 259.476,248.119 258.143,244.953 257.5,241.5 Z"/></g>
<g><path style="opacity:1" fill="#828281" d="M 353.5,232.5 C 353.194,235.385 353.527,238.052 354.5,240.5C 354.44,241.043 354.107,241.376 353.5,241.5C 352.197,238.355 352.197,235.355 353.5,232.5 Z"/></g>
<g><path style="opacity:1" fill="#242422" d="M 186.5,244.5 C 188.807,245.653 191.14,246.82 193.5,248C 201.57,248.429 209.57,248.096 217.5,247C 210.354,252.383 202.354,254.716 193.5,254C 189.094,252.353 186.761,249.187 186.5,244.5 Z"/></g>
<g><path style="opacity:1" fill="#20201e" d="M 352.5,245.5 C 363.313,250.108 373.979,255.108 384.5,260.5C 384.976,263.74 384.976,267.073 384.5,270.5C 372.471,271.194 360.471,272.194 348.5,273.5C 348.575,270.794 348.908,268.127 349.5,265.5C 352.167,265.5 354.833,265.5 357.5,265.5C 358.376,262.201 358.543,258.868 358,255.5C 356.416,254.139 354.582,253.472 352.5,253.5C 352.5,250.833 352.5,248.167 352.5,245.5 Z"/></g>
<g><path style="opacity:1" fill="#1f1f1d" d="M 68.5,247.5 C 79.2204,244.572 84.8871,248.572 85.5,259.5C 86.5,259.833 87.5,260.167 88.5,260.5C 92.1796,259.831 95.8463,259.164 99.5,258.5C 99.5,261.167 99.5,263.833 99.5,266.5C 88.2033,268.096 76.8699,269.43 65.5,270.5C 63.9414,264.248 63.4414,257.915 64,251.5C 65.3968,249.93 66.8968,248.596 68.5,247.5 Z"/></g>
<g><path style="opacity:1" fill="#282826" d="M 250.5,246.5 C 248.577,264.451 242.077,280.451 231,294.5C 233.037,290.064 234.871,285.398 236.5,280.5C 239.687,269.761 243.187,259.095 247,248.5C 248,247.5 249,246.5 250,245.5C 250.399,245.728 250.565,246.062 250.5,246.5 Z"/></g>
<g><path style="opacity:1" fill="#e7e7e7" d="M 249.5,243.5 C 250.091,244.151 250.757,244.818 251.5,245.5C 251.376,246.107 251.043,246.44 250.5,246.5C 250.565,246.062 250.399,245.728 250,245.5C 249,246.5 248,247.5 247,248.5C 243.187,259.095 239.687,269.761 236.5,280.5C 235.833,280.5 235.167,280.5 234.5,280.5C 235.866,274.696 237.366,269.029 239,263.5C 232.801,271.696 225.301,278.529 216.5,284C 215.365,284.749 214.365,284.583 213.5,283.5C 228.08,275.086 238.58,263.086 245,247.5C 246.371,245.959 247.871,244.625 249.5,243.5 Z"/></g>
<g><path style="opacity:1" fill="#232321" d="M 252.5,249.5 C 254.047,251.807 254.713,254.473 254.5,257.5C 254.071,261.831 253.738,266.165 253.5,270.5C 252.439,281.788 247.773,291.288 239.5,299C 238.833,299.667 238.167,299.667 237.5,299C 239.823,294.128 240.989,288.961 241,283.5C 242.586,281.33 243.92,278.996 245,276.5C 247.998,267.494 250.498,258.494 252.5,249.5 Z"/></g>
<g><path style="opacity:1" fill="#d6d6d6" d="M 253.5,245.5 C 254.465,248.926 256.132,252.093 258.5,255C 260.345,256.128 262.345,256.628 264.5,256.5C 263.167,257.167 261.833,257.833 260.5,258.5C 259.206,257.71 258.039,256.71 257,255.5C 256.729,261.721 255.896,267.721 254.5,273.5C 254.737,272.209 254.404,271.209 253.5,270.5C 253.738,266.165 254.071,261.831 254.5,257.5C 254.713,254.473 254.047,251.807 252.5,249.5C 252.833,248.167 253.167,246.833 253.5,245.5 Z"/></g>
<g><path style="opacity:1" fill="#20201e" d="M 220.5,246.5 C 221.525,246.897 221.692,247.563 221,248.5C 213.97,257.429 205.47,264.595 195.5,270C 187.12,272.984 180.12,270.984 174.5,264C 180.985,263.589 186.652,261.255 191.5,257C 202.739,257.534 212.405,254.034 220.5,246.5 Z"/></g>
<g><path style="opacity:1" fill="#222220" d="M 228.5,244.5 C 226.777,246.253 225.277,248.253 224,250.5C 221.612,260.449 216.779,268.949 209.5,276C 198.897,282.086 188.564,281.919 178.5,275.5C 187.68,274.759 196.346,272.259 204.5,268C 215.184,259.988 223.684,250.154 230,238.5C 230.667,236.833 230.667,235.167 230,233.5C 226.478,230.734 223.145,227.734 220,224.5C 218.084,221.102 217.084,217.435 217,213.5C 215.279,210.961 213.446,208.628 211.5,206.5C 211.369,205.761 211.536,205.094 212,204.5C 217.536,208.903 221.036,214.57 222.5,221.5C 224.019,217.303 223.352,213.47 220.5,210C 222.076,209.612 223.409,210.112 224.5,211.5C 227.347,216.873 229.513,222.54 231,228.5C 232.378,230.213 234.045,231.547 236,232.5C 236.667,233.5 236.667,234.5 236,235.5C 232.912,238.081 230.412,241.081 228.5,244.5 Z"/></g>
<g><path style="opacity:1" fill="#f2f2f1" d="M 70.5,254.5 C 76.8263,252.841 79.8263,255.174 79.5,261.5C 76.1933,262.051 72.8599,262.384 69.5,262.5C 69.2786,259.721 69.612,257.054 70.5,254.5 Z"/></g>
<g><path style="opacity:1" fill="#1f1f1d" d="M 260.5,258.5 C 261.99,263.032 263.156,267.698 264,272.5C 264.637,274.303 265.803,275.636 267.5,276.5C 266.91,277.799 265.91,278.632 264.5,279C 261.833,279.667 259.167,279.667 256.5,279C 254.845,277.556 254.178,275.722 254.5,273.5C 255.896,267.721 256.729,261.721 257,255.5C 258.039,256.71 259.206,257.71 260.5,258.5 Z"/></g>
<g><path style="opacity:1" fill="#e6e6e5" d="M 363.5,258.5 C 368.408,259.638 373.074,261.471 377.5,264C 372.882,264.994 368.215,265.494 363.5,265.5C 363.5,263.167 363.5,260.833 363.5,258.5 Z"/></g>
<g><path style="opacity:1" fill="#1d1d1b" d="M 154.5,287.5 C 168.118,286.405 170.784,291.072 162.5,301.5C 167.745,306.246 173.412,310.412 179.5,314C 187.408,315.129 195.075,314.296 202.5,311.5C 205.238,312.728 207.571,314.562 209.5,317C 216.753,318.557 224.086,318.89 231.5,318C 234.952,316.209 238.118,314.042 241,311.5C 252.059,316.27 262.559,315.437 272.5,309C 274.907,306.715 277.407,304.549 280,302.5C 279.874,299.902 278.874,297.569 277,295.5C 276.167,289.831 278.667,287.164 284.5,287.5C 293.231,288.384 299.731,292.717 304,300.5C 313.252,314.013 310.085,316.513 294.5,308C 292.5,307.333 290.5,307.333 288.5,308C 284.515,313.494 279.515,317.828 273.5,321C 260.292,326.955 247.292,333.289 234.5,340C 230.333,344.167 226.167,348.333 222,352.5C 217.135,347.3 211.968,342.467 206.5,338C 193.833,332 181.167,326 168.5,320C 162.721,316.223 157.555,311.723 153,306.5C 147.137,309.519 140.97,311.519 134.5,312.5C 137.28,301.353 143.947,293.02 154.5,287.5 Z"/></g>
<g><path style="opacity:1" fill="#1e1e1c" d="M 90.5,299.5 C 99.2071,299.037 102.707,303.037 101,311.5C 98.4586,316.069 94.6253,317.569 89.5,316C 82.644,310.1 82.9773,304.6 90.5,299.5 Z"/></g>
<g><path style="opacity:1" fill="#1e1e1d" d="M 351.5,300.5 C 362.908,301.039 365.908,306.206 360.5,316C 350.426,319.553 345.926,316.053 347,305.5C 348.366,303.638 349.866,301.972 351.5,300.5 Z"/></g>
<g><path style="opacity:1" fill="#21211f" d="M 317.5,345.5 C 318.552,345.351 319.552,345.517 320.5,346C 328.981,352.98 337.314,360.146 345.5,367.5C 343.494,370.005 341.328,372.338 339,374.5C 329.786,371.097 320.62,367.93 311.5,365C 318.425,370.38 325.258,375.88 332,381.5C 331.95,383.752 330.784,385.418 328.5,386.5C 319.515,379.513 310.848,372.179 302.5,364.5C 304.225,361.684 306.392,359.35 309,357.5C 317.474,360.769 325.974,363.602 334.5,366C 327.833,360.667 321.167,355.333 314.5,350C 315.883,348.729 316.883,347.229 317.5,345.5 Z"/></g>
<g><path style="opacity:1" fill="#20201e" d="M 124.5,347.5 C 134.666,347.498 139.5,352.498 139,362.5C 136.325,367.771 133.825,367.604 131.5,362C 135.083,356.578 133.749,354.245 127.5,355C 125.264,359.285 124.931,363.785 126.5,368.5C 125.708,375.797 121.708,379.297 114.5,379C 107.864,375.884 104.697,370.717 105,363.5C 106,361.167 107.667,359.5 110,358.5C 111.62,360.241 113.12,362.075 114.5,364C 110.356,367.215 110.523,370.049 115,372.5C 116.892,372.223 118.225,371.223 119,369.5C 119.333,363.833 119.667,358.167 120,352.5C 121.193,350.503 122.693,348.836 124.5,347.5 Z"/></g>
<g><path style="opacity:1" fill="#21211f" d="M 148.5,367.5 C 154.271,371.424 159.937,375.591 165.5,380C 164.547,381.955 163.213,383.622 161.5,385C 153.268,387.686 145.268,390.853 137.5,394.5C 140.349,397.513 143.515,400.18 147,402.5C 147.264,404.639 146.431,406.306 144.5,407.5C 138.382,403.546 132.715,399.046 127.5,394C 128.439,392.056 129.773,390.389 131.5,389C 139.833,386 148.167,383 156.5,380C 153.333,377.5 150.167,375 147,372.5C 146.387,370.505 146.887,368.838 148.5,367.5 Z"/></g>
<g><path style="opacity:1" fill="#21211f" d="M 290.5,373.5 C 291.675,373.281 292.675,373.614 293.5,374.5C 299.858,382.357 306.025,390.357 312,398.5C 311.008,405.321 308.341,405.988 304,400.5C 298.167,392.667 292.333,384.833 286.5,377C 288.093,376.051 289.426,374.885 290.5,373.5 Z"/></g>
<g><path style="opacity:1" fill="#20201e" d="M 269.5,386.5 C 274.994,386.248 278.994,388.581 281.5,393.5C 279.891,394.888 278.058,395.888 276,396.5C 274.63,394.797 272.964,393.464 271,392.5C 269.739,392.759 268.739,393.426 268,394.5C 268.464,402.55 271.297,409.717 276.5,416C 277.833,416.667 279.167,416.667 280.5,416C 281.788,413.534 281.788,411.034 280.5,408.5C 282.971,405.602 285.471,405.269 288,407.5C 289.243,418.164 284.41,422.997 273.5,422C 264.883,414.492 260.716,404.992 261,393.5C 263.441,390.546 266.275,388.213 269.5,386.5 Z"/></g>
<g><path style="opacity:1" fill="#20201e" d="M 174.5,388.5 C 187.101,387.254 191.934,392.587 189,404.5C 186.75,403.292 184.583,401.959 182.5,400.5C 184.007,398.031 183.673,395.865 181.5,394C 179.633,393.289 178.133,393.789 177,395.5C 174.667,400.167 172.333,404.833 170,409.5C 169.333,411.833 169.333,414.167 170,416.5C 171.388,417.554 172.888,417.72 174.5,417C 175.787,415.59 176.954,414.09 178,412.5C 184.776,414.574 185.276,417.74 179.5,422C 172.436,424.886 166.936,423.052 163,416.5C 162.829,405.512 166.662,396.179 174.5,388.5 Z"/></g>
<g><path style="opacity:1" fill="#20201e" d="M 201.5,396.5 C 208.574,397.235 215.574,398.401 222.5,400C 221.736,402.069 221.236,404.236 221,406.5C 215.351,412.983 209.517,419.317 203.5,425.5C 208.02,427.143 212.687,428.143 217.5,428.5C 217.5,430.167 217.5,431.833 217.5,433.5C 210.415,433.041 203.415,432.041 196.5,430.5C 195.359,428.579 195.192,426.579 196,424.5C 202.02,417.981 207.853,411.315 213.5,404.5C 209.595,403.132 205.595,402.132 201.5,401.5C 200.334,399.833 200.334,398.166 201.5,396.5 Z"/></g>
<g><path style="opacity:1" fill="#20201e" d="M 239.5,396.5 C 242.167,396.5 244.833,396.5 247.5,396.5C 247.5,398.167 247.5,399.833 247.5,401.5C 243.821,401.724 240.154,402.058 236.5,402.5C 236.704,405.518 237.037,408.518 237.5,411.5C 241.136,410.674 244.803,410.008 248.5,409.5C 248.739,411.467 248.406,413.301 247.5,415C 244.883,415.822 242.216,416.322 239.5,416.5C 239.46,419.881 239.793,423.214 240.5,426.5C 244.521,425.495 248.521,425.495 252.5,426.5C 253.246,427.736 253.579,429.07 253.5,430.5C 247.145,431.371 240.812,432.371 234.5,433.5C 232.392,421.851 230.392,410.184 228.5,398.5C 232.458,398.749 236.124,398.082 239.5,396.5 Z"/></g>
</svg>
